<?xml version="1.0" encoding="UTF-8"?>
<svg xmlns="http://www.w3.org/2000/svg" width="228" height="60" viewBox="0 0 228 60" fill="none">
  <path d="M0.012146 38.7074H64.7693V37.8282H0.012146" fill="#EE3436"></path>
  <path d="M148.795 37.8282H82.6774V38.7074H148.795" fill="#EE3436"></path>
  <path fill-rule="evenodd" clip-rule="evenodd" d="M167.716 13.2477C184.576 22.4247 203.207 22.1839 218.298 13.2477L227.619 22.1357H157.551L167.716 13.2477Z" fill="#08458D"></path>
  <path fill-rule="evenodd" clip-rule="evenodd" d="M167.692 46.8005C184.553 37.6235 203.196 37.8643 218.214 46.8005L227.62 37.8643H157.527L167.692 46.8005Z" fill="#08458D"></path>
  <path fill-rule="evenodd" clip-rule="evenodd" d="M175.833 5.51586C187.178 11.7061 199.739 11.5375 209.855 5.51586L216.166 11.5375H168.992L175.833 5.51586Z" fill="#08458D"></path>
  <path fill-rule="evenodd" clip-rule="evenodd" d="M175.833 54.4841C187.178 48.3059 199.739 48.4625 209.856 54.4841L216.166 48.4625H168.969L175.833 54.4841Z" fill="#08458D"></path>
  <path fill-rule="evenodd" clip-rule="evenodd" d="M181.855 0C185.146 1.91571 188.886 2.92496 192.694 2.92496C196.502 2.92496 200.242 1.91571 203.533 0L207.543 3.82979H177.555L181.855 0Z" fill="#08458D"></path>
  <path fill-rule="evenodd" clip-rule="evenodd" d="M181.855 60C185.147 58.0867 188.886 57.0788 192.694 57.0788C196.501 57.0788 200.241 58.0867 203.533 60L207.543 56.1702H177.531L181.855 60Z" fill="#08458D"></path>
  <path d="M225.392 28.338V30.7467C225.38 31.0014 225.456 31.2524 225.608 31.4572C225.671 31.5412 225.753 31.6089 225.847 31.655C225.942 31.7011 226.045 31.7241 226.15 31.7222C226.415 31.6963 226.671 31.6098 226.897 31.4693C226.964 31.4495 227.035 31.4495 227.102 31.4693C227.169 31.472 227.235 31.4923 227.292 31.5282C227.349 31.5642 227.395 31.6144 227.427 31.674C227.521 31.808 227.572 31.9679 227.571 32.1317C227.554 32.301 227.501 32.4648 227.416 32.6121C227.331 32.7595 227.216 32.8872 227.078 32.9867C226.386 33.5742 225.504 33.8871 224.597 33.8659C223.915 33.8993 223.248 33.6611 222.742 33.2035C222.51 32.9827 222.327 32.7148 222.207 32.4178C222.086 32.1208 222.031 31.8016 222.043 31.4813V28.1212C222.063 28.0503 222.063 27.9754 222.043 27.9045C221.977 27.884 221.905 27.884 221.839 27.9045H221.092C220.999 27.9161 220.906 27.8948 220.827 27.8442C220.777 27.7436 220.756 27.631 220.767 27.5191V27.1939C220.766 27.1316 220.78 27.07 220.81 27.0152C220.84 26.9603 220.883 26.914 220.936 26.8808L224.235 24.8093C224.332 24.7589 224.44 24.734 224.549 24.7371H225.127C225.218 24.7331 225.308 24.7631 225.38 24.8214C225.405 24.9282 225.405 25.0396 225.38 25.1465V26.122C225.368 26.224 225.393 26.3267 225.452 26.4111C225.539 26.4609 225.641 26.482 225.741 26.4713H227.078C227.258 26.4713 227.367 26.4713 227.427 26.5676C227.487 26.6953 227.512 26.8366 227.499 26.9771V27.4107C227.517 27.5773 227.483 27.7455 227.403 27.8924C227.355 27.9418 227.296 27.9794 227.232 28.0024C227.167 28.0254 227.098 28.0331 227.029 28.0249H225.729C225.631 28.0137 225.532 28.0395 225.452 28.0971C225.393 28.1768 225.367 28.276 225.38 28.3741M216.696 26.4954C217.102 26.511 217.505 26.5634 217.901 26.6519H218.166C218.333 26.6361 218.496 26.5913 218.647 26.5195C218.74 26.4845 218.837 26.4642 218.936 26.4593C219.071 26.4768 219.2 26.5236 219.314 26.5965C219.429 26.6693 219.526 26.7663 219.599 26.8808C219.785 27.1049 219.936 27.3568 220.044 27.6275C220.152 27.8453 220.214 28.0831 220.225 28.326C220.226 28.4161 220.208 28.5054 220.173 28.5883C220.138 28.6713 220.086 28.746 220.02 28.8077C219.881 28.9319 219.701 29.0005 219.514 29.0004C219.354 28.9975 219.197 28.9562 219.057 28.88C218.836 28.7136 218.627 28.5326 218.43 28.338C218.236 28.101 217.962 27.9426 217.66 27.8924C217.594 27.8886 217.529 27.8996 217.469 27.9246C217.408 27.9496 217.354 27.988 217.31 28.0369C217.264 28.0824 217.227 28.1368 217.203 28.1968C217.178 28.2568 217.165 28.3212 217.166 28.3862C217.166 28.615 217.395 28.8438 217.84 29.0486C218.532 29.3308 219.165 29.7392 219.707 30.2529C219.888 30.4246 220.03 30.6323 220.126 30.8626C220.221 31.0928 220.267 31.3405 220.261 31.5897C220.261 31.9203 220.179 32.2458 220.024 32.5376C219.868 32.8294 219.644 33.0788 219.37 33.2637C218.84 33.6628 218.19 33.8708 217.527 33.8539C217.335 33.8539 216.997 33.8539 216.492 33.7575L215.709 33.6732H215.492C215.392 33.683 215.291 33.683 215.191 33.6732C214.999 33.6849 214.81 33.6248 214.661 33.5046C214.419 33.2659 214.23 32.9785 214.107 32.6616C213.961 32.3561 213.879 32.0242 213.866 31.6861C213.866 31.2405 214.023 31.0116 214.372 31.0116C214.508 31.0115 214.64 31.0583 214.745 31.1441C214.866 31.2405 215.094 31.4813 215.468 31.8547C215.611 32.0209 215.773 32.1704 215.95 32.3003C216.077 32.3764 216.222 32.4179 216.371 32.4207C216.508 32.4278 216.642 32.3801 216.744 32.2882C216.792 32.2466 216.83 32.1946 216.855 32.1362C216.88 32.0778 216.892 32.0145 216.889 31.951C216.889 31.7342 216.708 31.5415 216.347 31.3609C215.706 31.0835 215.131 30.673 214.661 30.1566C214.324 29.7695 214.14 29.2727 214.143 28.7595C214.136 28.2181 214.324 27.6922 214.673 27.2782C214.931 27.0058 215.246 26.7942 215.596 26.6588C215.946 26.5234 216.322 26.4676 216.696 26.4954ZM208.868 30.6624C208.761 30.6605 208.656 30.6835 208.56 30.7295C208.464 30.7754 208.38 30.8432 208.314 30.9273C208.234 31.0078 208.171 31.1039 208.13 31.2095C208.089 31.3151 208.069 31.4281 208.073 31.5415C208.064 31.7401 208.124 31.9357 208.242 32.0955C208.292 32.166 208.359 32.2228 208.437 32.2607C208.515 32.2986 208.601 32.3163 208.687 32.3123C209.061 32.3123 209.253 31.9872 209.253 31.3368C209.27 31.1559 209.241 30.9737 209.169 30.8069C209.145 30.7479 209.103 30.6978 209.049 30.6634C208.995 30.6289 208.932 30.6118 208.868 30.6142V30.6624ZM209.338 26.4833C210.099 26.4606 210.846 26.6845 211.469 27.1216C211.753 27.3136 211.978 27.5803 212.12 27.8924C212.255 28.2789 212.317 28.6875 212.3 29.0967V30.1084C212.265 30.5996 212.318 31.0931 212.457 31.5656C212.49 31.6434 212.544 31.7102 212.614 31.7583C212.707 31.807 212.81 31.8357 212.915 31.8426C213.071 31.8426 213.143 31.9631 213.143 32.1437C213.133 32.4085 213.036 32.6625 212.866 32.8663C212.672 33.1236 212.426 33.337 212.144 33.4926C211.804 33.7039 211.412 33.8165 211.012 33.8177C210.785 33.8287 210.558 33.7878 210.35 33.698C210.141 33.6083 209.956 33.4721 209.807 33.2999C209.779 33.2489 209.739 33.205 209.691 33.1716C209.643 33.1382 209.588 33.1162 209.53 33.1072C209.387 33.1266 209.252 33.1897 209.145 33.2878C208.67 33.6355 208.096 33.8212 207.507 33.8177C206.968 33.8388 206.434 33.6961 205.978 33.4083C205.722 33.226 205.512 32.9869 205.363 32.7098C205.221 32.4341 205.147 32.1286 205.147 31.8185C205.149 31.5661 205.203 31.3169 205.307 31.0868C205.411 30.8566 205.561 30.6506 205.749 30.4817C206.541 29.8273 207.553 29.4999 208.579 29.5664C208.76 29.5891 208.944 29.5598 209.109 29.4821C209.181 29.4821 209.217 29.3015 209.217 29.0967C209.234 28.7209 209.181 28.3453 209.061 27.9888C209.018 27.8845 208.945 27.796 208.85 27.7356C208.755 27.6751 208.643 27.6458 208.531 27.6515C208.393 27.6506 208.258 27.6927 208.145 27.772C207.989 27.918 207.848 28.0794 207.724 28.2537C207.593 28.5042 207.403 28.7188 207.17 28.8784C206.937 29.038 206.668 29.1378 206.387 29.169C206.176 29.1758 205.969 29.1027 205.809 28.9643C205.735 28.8923 205.677 28.8061 205.638 28.7108C205.598 28.6156 205.579 28.5133 205.58 28.4103C205.591 28.1543 205.694 27.9107 205.869 27.7238C206.077 27.4738 206.331 27.2654 206.616 27.1096C207.459 26.6857 208.394 26.4748 209.338 26.4954V26.4833ZM203.738 27.9526V30.2288C203.704 30.8225 203.704 31.4176 203.738 32.0112C203.759 32.1027 203.804 32.1871 203.867 32.2567C203.93 32.3262 204.01 32.3785 204.099 32.4087C204.23 32.455 204.349 32.5289 204.448 32.6254C204.516 32.7015 204.55 32.801 204.544 32.9024C204.544 33.0652 204.479 33.2211 204.364 33.336C204.253 33.4725 204.101 33.5696 203.93 33.613C203.35 33.7429 202.754 33.7956 202.16 33.7696C201.503 33.8002 200.845 33.7312 200.209 33.5648C200.047 33.5043 199.902 33.4051 199.787 33.2758C199.679 33.162 199.619 33.0112 199.619 32.8543C199.619 32.7594 199.648 32.6668 199.703 32.5893C199.826 32.5007 199.959 32.4278 200.1 32.3725C200.293 32.2882 200.402 32.0594 200.45 31.6981C200.54 30.8099 200.576 29.9171 200.558 29.0245C200.585 28.2684 200.552 27.5114 200.462 26.7603C200.437 26.605 200.379 26.4568 200.292 26.3259C200.204 26.1949 200.09 26.0843 199.956 26.0016C199.795 25.9278 199.655 25.8163 199.547 25.6764C199.472 25.5666 199.434 25.4359 199.438 25.3031C199.439 25.1807 199.47 25.0605 199.529 24.9532C199.588 24.8459 199.672 24.7551 199.775 24.6889C200.103 24.4594 200.471 24.2921 200.859 24.1951C201.284 24.0767 201.714 23.9802 202.148 23.9061C202.546 23.8335 202.948 23.7892 203.352 23.7736C203.738 23.7736 203.918 24.0144 203.918 24.4841C203.918 24.6407 203.918 24.99 203.846 25.544C203.786 26.399 203.75 27.1939 203.738 27.9045V27.9526ZM193.826 29.2533L193.718 31.2405C193.712 31.3206 193.712 31.4012 193.718 31.4813C193.718 31.5523 193.738 31.6218 193.774 31.683C193.81 31.7443 193.861 31.7951 193.922 31.8306C194.07 31.9348 194.248 31.9857 194.428 31.9751C195.103 31.9751 195.428 31.4332 195.428 30.3372C195.486 29.8036 195.335 29.2682 195.006 28.8438C194.929 28.7583 194.834 28.6904 194.728 28.6447C194.622 28.599 194.507 28.5766 194.392 28.5789C194.043 28.5307 193.898 28.7475 193.826 29.2051V29.2533ZM193.115 26.4954C193.299 26.4776 193.485 26.5023 193.657 26.5676C193.73 26.5676 193.754 26.7483 193.754 26.941C193.754 27.1337 193.826 27.218 193.934 27.218C194.108 27.1507 194.27 27.0573 194.416 26.941C194.662 26.7829 194.93 26.6612 195.211 26.5797C195.493 26.4998 195.785 26.4553 196.078 26.4472C196.685 26.446 197.27 26.674 197.716 27.0855C198.088 27.4175 198.38 27.8291 198.571 28.2898C198.787 28.8045 198.898 29.3574 198.896 29.9157C198.914 30.4699 198.816 31.0218 198.609 31.5361C198.402 32.0504 198.089 32.5157 197.692 32.9024C197.412 33.1929 197.078 33.4246 196.708 33.5838C196.337 33.7431 195.939 33.8267 195.536 33.8298C195.099 33.8235 194.668 33.725 194.272 33.5407C194.21 33.5034 194.139 33.4827 194.067 33.4805C193.922 33.4805 193.85 33.625 193.85 33.9141C193.836 34.0712 193.864 34.2291 193.929 34.3726C193.994 34.5161 194.096 34.6403 194.223 34.733C194.38 34.8242 194.525 34.9334 194.657 35.0582C194.689 35.1477 194.689 35.2457 194.657 35.3352C194.653 35.4814 194.605 35.623 194.519 35.7412C194.433 35.8595 194.313 35.9489 194.175 35.9976C193.745 36.1771 193.28 36.2593 192.814 36.2385C191.865 36.2583 190.926 36.0431 190.08 35.6122C189.915 35.5508 189.77 35.4434 189.663 35.3026C189.557 35.1618 189.493 34.9934 189.478 34.8173C189.468 34.7024 189.497 34.5874 189.563 34.4922C189.664 34.3918 189.782 34.3103 189.912 34.2513C190.034 34.1929 190.14 34.1051 190.219 33.9958C190.299 33.8865 190.351 33.7591 190.369 33.625C190.459 32.7568 190.504 31.8845 190.502 31.0116C190.512 30.3463 190.464 29.6814 190.357 29.0245C190.359 28.9994 190.354 28.9742 190.341 28.9526C190.328 28.931 190.308 28.914 190.285 28.9041L189.924 28.8318C189.779 28.8016 189.648 28.7255 189.551 28.615C189.455 28.5001 189.404 28.3549 189.406 28.2055C189.407 28.0169 189.48 27.8358 189.611 27.6997C189.799 27.5168 190.02 27.3698 190.261 27.2662C191.154 26.8277 192.123 26.566 193.115 26.4954V26.4954ZM184.36 28.1212C184.262 28.117 184.164 28.1354 184.074 28.1751C183.984 28.2148 183.905 28.2747 183.842 28.3501C183.714 28.5286 183.651 28.745 183.661 28.9643C183.67 29.3702 183.723 29.7739 183.818 30.1686C183.908 30.6244 184.037 31.0717 184.203 31.5054C184.245 31.6702 184.339 31.8169 184.472 31.9234C184.604 32.0299 184.768 32.0903 184.938 32.0955C185.359 32.0955 185.576 31.8185 185.576 31.2766C185.597 30.8043 185.56 30.3312 185.468 29.8675C185.389 29.4324 185.26 29.008 185.082 28.603C185.029 28.4551 184.931 28.3278 184.801 28.2391C184.671 28.1505 184.517 28.105 184.36 28.1092V28.1212ZM184.938 26.4472C185.761 26.4325 186.569 26.6723 187.25 27.1337C187.751 27.4538 188.164 27.8922 188.455 28.4103C188.724 28.9347 188.857 29.5189 188.84 30.1084C188.831 30.6343 188.697 31.1505 188.447 31.6137C188.198 32.0768 187.841 32.4733 187.407 32.77C186.511 33.4613 185.407 33.8305 184.276 33.8177C183.252 33.8611 182.251 33.5073 181.481 32.8302C181.137 32.518 180.864 32.1342 180.683 31.7057C180.502 31.2771 180.417 30.8142 180.434 30.3493C180.421 29.819 180.53 29.293 180.751 28.8109C180.972 28.3289 181.3 27.9036 181.71 27.5672C182.616 26.8224 183.766 26.4404 184.938 26.4954V26.4472ZM178.976 27.9165V30.2288C178.976 31.2525 178.976 31.8426 178.976 32.0112C179 32.1018 179.045 32.1852 179.108 32.2545C179.171 32.3237 179.25 32.3766 179.338 32.4087C179.472 32.4557 179.595 32.5295 179.699 32.6254C179.757 32.7058 179.787 32.8033 179.783 32.9024C179.785 32.9823 179.772 33.0617 179.743 33.1362C179.714 33.2106 179.67 33.2785 179.615 33.336C179.496 33.4756 179.336 33.5728 179.157 33.613C177.932 33.8533 176.673 33.8533 175.448 33.613C175.286 33.5525 175.141 33.4533 175.026 33.324C174.923 33.2072 174.863 33.0582 174.858 32.9024C174.856 32.8053 174.891 32.7111 174.954 32.6375C175.07 32.5456 175.2 32.4724 175.339 32.4207C175.532 32.3364 175.652 32.1076 175.689 31.7463C175.784 30.8584 175.824 29.9655 175.809 29.0727C175.834 28.3163 175.798 27.5591 175.701 26.8085C175.678 26.6539 175.622 26.5061 175.537 26.3751C175.452 26.2442 175.339 26.1332 175.207 26.0498C175.044 25.9742 174.9 25.8631 174.785 25.7246C174.711 25.6148 174.673 25.4841 174.677 25.3513C174.678 25.2289 174.709 25.1086 174.768 25.0014C174.827 24.8941 174.911 24.8032 175.014 24.7371C175.344 24.5101 175.711 24.343 176.098 24.2433C176.522 24.1248 176.952 24.0284 177.387 23.9542C177.785 23.8817 178.187 23.8374 178.591 23.8218C178.964 23.8218 179.157 24.0626 179.157 24.5323C179.157 24.6889 179.157 25.0381 179.157 25.5921C179.025 26.399 179.001 27.1939 178.976 27.9045V27.9165ZM169.643 28.1212C169.547 28.117 169.45 28.1355 169.363 28.1752C169.275 28.215 169.197 28.2749 169.137 28.3501C169.001 28.5247 168.932 28.743 168.944 28.9643C168.96 29.3697 169.012 29.7728 169.101 30.1686C169.196 30.6231 169.325 31.0699 169.486 31.5054C169.53 31.6693 169.625 31.8149 169.757 31.9211C169.889 32.0272 170.052 32.0884 170.221 32.0955C170.654 32.0955 170.859 31.8185 170.859 31.2766C170.855 30.8147 170.803 30.3545 170.703 29.9037C170.621 29.4679 170.487 29.0434 170.305 28.6391C170.263 28.4931 170.177 28.3638 170.058 28.2689C169.94 28.174 169.795 28.1182 169.643 28.1092V28.1212ZM170.221 26.4472C171.044 26.4302 171.853 26.6701 172.533 27.1337C173.034 27.4538 173.447 27.8922 173.738 28.4103C174.035 28.9355 174.193 29.5286 174.195 30.1325C174.187 30.6599 174.052 31.1775 173.8 31.641C173.548 32.1046 173.188 32.5002 172.75 32.7941C171.856 33.4888 170.751 33.8584 169.619 33.8418C168.595 33.8852 167.594 33.5314 166.825 32.8543C166.481 32.5415 166.211 32.1573 166.032 31.7287C165.853 31.3 165.77 30.8374 165.789 30.3733C165.767 29.8488 165.864 29.3261 166.072 28.8443C166.281 28.3625 166.596 27.9342 166.993 27.5913C167.896 26.8389 169.046 26.4483 170.221 26.4954V26.4472ZM161.2 26.4472C161.457 26.4472 161.614 26.4833 161.67 26.5556C161.754 26.7795 161.803 27.0152 161.815 27.2541C161.815 27.4588 161.911 27.5672 162.031 27.5672C162.091 27.5589 162.148 27.5358 162.196 27.5C162.244 27.4643 162.283 27.417 162.308 27.3625C162.459 27.1019 162.675 26.8849 162.934 26.7328C163.194 26.5808 163.489 26.499 163.79 26.4954C163.99 26.4867 164.189 26.5197 164.376 26.5923C164.563 26.6649 164.732 26.7754 164.874 26.9169C165.013 27.0769 165.123 27.2604 165.199 27.4588C165.287 27.6557 165.333 27.8693 165.331 28.0851C165.324 28.3258 165.271 28.563 165.175 28.7836C165.08 29.0092 164.936 29.2107 164.753 29.3737C164.602 29.5171 164.425 29.6292 164.231 29.7036C164.036 29.778 163.829 29.8132 163.621 29.8073C163.408 29.8183 163.196 29.7726 163.007 29.6748C162.77 29.5297 162.551 29.3557 162.357 29.157C162.287 29.0725 162.188 29.0167 162.08 29.0004C162.015 28.9998 161.953 29.0227 161.904 29.0648C161.855 29.1069 161.823 29.1654 161.815 29.2292C161.784 29.5497 161.784 29.8723 161.815 30.1927C161.802 30.6876 161.826 31.1828 161.887 31.674C161.913 31.7837 161.962 31.8865 162.031 31.9751C162.15 32.0513 162.28 32.1082 162.417 32.1437C162.85 32.2762 163.067 32.493 163.067 32.8181C163.069 32.9148 163.05 33.0107 163.013 33.0998C162.976 33.189 162.92 33.2694 162.85 33.336C162.705 33.4875 162.515 33.5888 162.308 33.625C161.636 33.7371 160.955 33.7855 160.273 33.7696C159.62 33.7947 158.966 33.7216 158.334 33.5528C158.17 33.5223 158.022 33.436 157.915 33.3087C157.807 33.1815 157.747 33.0209 157.744 32.8543C157.75 32.715 157.792 32.5797 157.866 32.4615C157.94 32.3433 158.043 32.2463 158.166 32.1798C158.276 32.1138 158.374 32.0281 158.455 31.9269C158.518 31.8376 158.559 31.7344 158.575 31.6259C158.659 30.8258 158.695 30.0215 158.683 29.2172C158.697 29.0559 158.668 28.894 158.599 28.7475C158.539 28.6391 158.44 28.5574 158.322 28.5187C157.973 28.3862 157.816 28.1935 157.816 27.9406C157.818 27.8216 157.849 27.705 157.908 27.6017C157.967 27.4985 158.052 27.412 158.154 27.3505C158.529 27.1262 158.935 26.9559 159.358 26.8446C159.955 26.6514 160.574 26.534 161.2 26.4954V26.4472Z" fill="#EE3436"></path>
  <path d="M7.63549 18.9201C8.18948 18.9201 8.5267 18.9924 8.64713 19.1489C8.84771 19.6305 8.95793 20.1449 8.9723 20.6664C8.9723 21.124 9.18908 21.3529 9.46608 21.3529C9.74307 21.3529 9.87555 21.2084 10.0562 20.8952C10.3809 20.3032 10.8582 19.8089 11.4385 19.4637C12.0188 19.1185 12.6809 18.935 13.3561 18.9322C13.7884 18.9177 14.219 18.9925 14.621 19.1521C15.023 19.3117 15.3878 19.5525 15.6925 19.8595C16.0179 20.2037 16.2645 20.6147 16.4151 21.0638C16.6002 21.4982 16.6984 21.9646 16.7041 22.4368C16.6953 22.9615 16.5763 23.4785 16.3549 23.9542C16.148 24.4396 15.8448 24.878 15.4637 25.2429C15.1333 25.5573 14.7441 25.8032 14.3183 25.9665C13.8925 26.1298 13.4386 26.2072 12.9827 26.1943C12.5212 26.2129 12.0621 26.1178 11.6459 25.9173C11.1168 25.5813 10.6349 25.1763 10.2128 24.713C10.0635 24.5451 9.85779 24.4379 9.63468 24.4119C9.49628 24.4108 9.36226 24.4604 9.25796 24.5514C9.15366 24.6423 9.08631 24.7684 9.06865 24.9057C8.94197 25.5925 8.89348 26.2914 8.92413 26.9892C8.89125 28.0762 8.95169 29.1641 9.10478 30.2409C9.13682 30.4832 9.24183 30.71 9.40586 30.8912C9.66202 31.0656 9.94764 31.192 10.2489 31.2646C11.2003 31.5415 11.67 32.0353 11.67 32.7338C11.6721 32.9434 11.6328 33.1513 11.5542 33.3456C11.4757 33.5399 11.3595 33.7167 11.2124 33.8659C10.887 34.1986 10.466 34.4217 10.008 34.5042C8.54377 34.7471 7.05994 34.852 5.57607 34.8173C4.14672 34.8731 2.71722 34.7106 1.33681 34.3356C0.433561 34.0345 0 33.5287 0 32.8061C0.0158518 32.4976 0.110529 32.1984 0.274989 31.9369C0.439448 31.6755 0.668196 31.4606 0.939382 31.3127C1.18535 31.1753 1.40216 30.9912 1.57768 30.7708C1.70419 30.5707 1.78252 30.3439 1.8065 30.1084C2.01976 28.3465 2.10429 26.5714 2.05941 24.7973C2.08305 24.4526 2.02957 24.107 1.90285 23.7856C1.76175 23.5498 1.53886 23.374 1.2766 23.2919C0.529908 22.9908 0.156564 22.5693 0.156564 22.0032C0.165667 21.7408 0.241139 21.4849 0.375929 21.2596C0.51072 21.0342 0.70043 20.8467 0.927338 20.7146C1.72869 20.229 2.59706 19.8637 3.50462 19.6307C4.84312 19.2082 6.23274 18.9691 7.63549 18.9201V18.9201Z" fill="#08458D"></path>
  <path d="M26.8565 18.8117C28.6565 18.7738 30.4239 19.2956 31.9147 20.3051C32.9556 21.0239 33.8136 21.9767 34.4197 23.0871C35.054 24.2334 35.3855 25.5225 35.3832 26.8326C35.3703 27.9831 35.0786 29.1133 34.5333 30.1264C33.9879 31.1394 33.2051 32.0052 32.2519 32.6495C30.2927 34.1563 27.8826 34.9583 25.4113 34.9257C23.1651 35.0374 20.9632 34.2732 19.2692 32.7941C18.5216 32.1088 17.9319 31.2692 17.5409 30.3334C17.15 29.3976 16.9671 28.388 17.005 27.3745C16.9736 26.2169 17.2068 25.0673 17.6868 24.0133C18.1668 22.9594 18.881 22.0289 19.775 21.2927C21.7442 19.6127 24.2694 18.728 26.8565 18.8117ZM25.5919 22.4247C25.3806 22.4172 25.1705 22.459 24.9782 22.5468C24.7859 22.6346 24.6166 22.766 24.4839 22.9306C24.191 23.3303 24.05 23.8213 24.0865 24.3155C24.1131 25.1844 24.2301 26.0482 24.4358 26.8928C24.645 27.8758 24.9268 28.8419 25.2788 29.7832C25.3634 30.1416 25.5638 30.4622 25.8491 30.6951C26.1343 30.9281 26.4884 31.0605 26.8565 31.0719C27.7959 31.0719 28.2535 30.4817 28.2535 29.2894C28.2428 28.2803 28.1257 27.2752 27.9042 26.2906C27.7268 25.3453 27.4398 24.4238 27.0492 23.5448C26.9395 23.2399 26.7432 22.9738 26.4843 22.7791C26.2254 22.5844 25.9152 22.4696 25.5919 22.4488V22.4247Z" fill="#08458D"></path>
  <path d="M45.512 22.0153V27.0735C45.4766 28.3752 45.5128 29.6778 45.6204 30.9755C45.6673 31.1711 45.7624 31.3518 45.897 31.5011C46.0316 31.6505 46.2015 31.7637 46.3912 31.8306C46.6804 31.9342 46.9465 32.0938 47.174 32.3003C47.3154 32.477 47.3843 32.7009 47.3667 32.9265C47.3656 33.277 47.2372 33.6151 47.0054 33.878C46.7411 34.1672 46.3977 34.3724 46.0178 34.4681C44.7619 34.7508 43.4744 34.8682 42.188 34.8173C40.7518 34.8876 39.3133 34.7332 37.9247 34.3597C37.5634 34.235 37.2429 34.0143 36.9973 33.7214C36.7726 33.4733 36.6444 33.1528 36.636 32.8181C36.6279 32.7138 36.6407 32.6089 36.6738 32.5096C36.7069 32.4103 36.7596 32.3186 36.8287 32.2401C37.0861 32.0252 37.3797 31.858 37.6959 31.7463C38.0933 31.5656 38.3462 31.0839 38.4425 30.277C38.6385 28.3445 38.7229 26.4023 38.6955 24.4601C38.7452 22.811 38.6728 21.1606 38.4787 19.5223C38.4226 19.1811 38.2906 18.8568 38.0926 18.5734C37.8946 18.2899 37.6356 18.0545 37.3346 17.8844C36.9896 17.7042 36.6829 17.4588 36.4313 17.1618C36.2673 16.9162 36.1832 16.626 36.1904 16.3308C36.1973 16.0655 36.2675 15.8057 36.3953 15.5731C36.5231 15.3406 36.7048 15.142 36.9251 14.994C37.6582 14.4969 38.4737 14.134 39.3338 13.9221C40.26 13.6457 41.2008 13.4206 42.1519 13.2477C42.9857 13.0809 43.8314 12.9802 44.681 12.9466C45.4999 12.9466 45.8853 13.4645 45.8853 14.4882C45.8853 14.8254 45.8853 15.5961 45.7288 16.8005C45.6083 18.7395 45.5361 20.4737 45.512 22.0153Z" fill="#08458D"></path>
  <path d="M58.0491 18.8117C59.8454 18.774 61.6089 19.2959 63.0953 20.3051C64.1393 21.0205 64.9979 21.9741 65.6003 23.0871C66.2378 24.2327 66.5734 25.5216 66.5758 26.8326C66.5629 27.9831 66.2713 29.1133 65.7259 30.1264C65.1806 31.1394 64.3978 32.0052 63.4445 32.6495C61.4849 34.1555 59.0751 34.9573 56.6039 34.9257C54.3775 35.0267 52.1983 34.2629 50.522 32.7941C49.7729 32.1094 49.1814 31.2702 48.7884 30.3344C48.3954 29.3987 48.2102 28.3888 48.2458 27.3746C48.2171 26.2173 48.4515 25.0685 48.9313 24.015C49.4111 22.9615 50.1239 22.0306 51.0158 21.2927C52.9743 19.6271 55.479 18.7435 58.0491 18.8117V18.8117ZM56.7846 22.4247C56.5733 22.4172 56.3631 22.459 56.1708 22.5468C55.9785 22.6346 55.8093 22.766 55.6766 22.9306C55.3805 23.3206 55.2313 23.8024 55.2551 24.2915C55.2868 25.1607 55.4079 26.0243 55.6164 26.8687C55.8199 27.8531 56.1019 28.8197 56.4594 29.7591C56.5399 30.124 56.7401 30.4514 57.0282 30.6893C57.3163 30.9271 57.6756 31.0618 58.0491 31.0719C58.9765 31.0719 59.4461 30.4817 59.4461 29.2894C59.4295 28.2807 59.3125 27.2762 59.0969 26.2906C58.916 25.3447 58.6249 24.4231 58.2298 23.5448C58.125 23.2392 57.9316 22.9717 57.6742 22.7765C57.4168 22.5813 57.1071 22.4673 56.7846 22.4488V22.4247Z" fill="#08458D"></path>
  <path d="M75.4275 18.896C75.8367 18.8554 76.2496 18.9132 76.6319 19.0646C76.7884 19.173 76.8727 19.45 76.8727 19.8956C76.8727 20.3412 76.9932 20.4737 77.2461 20.4737C77.6278 20.3331 77.9853 20.134 78.3059 19.8836C78.8347 19.5356 79.4163 19.2753 80.0281 19.1128C80.6331 18.9253 81.2615 18.8239 81.8948 18.8117C83.2293 18.797 84.5199 19.2874 85.5078 20.1847C86.3189 20.9299 86.9455 21.8534 87.3384 22.8824C87.8064 24.0038 88.044 25.208 88.0369 26.4231C88.0743 27.6379 87.8556 28.8468 87.3949 29.9715C86.9343 31.0961 86.2421 32.1111 85.3633 32.9506C84.7552 33.5745 84.0287 34.0706 83.2262 34.4098C82.4238 34.7489 81.5617 34.9244 80.6905 34.9257C79.7373 34.9135 78.7975 34.7001 77.9326 34.2995C77.7904 34.2253 77.6348 34.1802 77.4749 34.167C77.1618 34.167 77.0052 34.4922 77.0052 35.1184C76.9738 35.4654 77.0354 35.8145 77.1836 36.1299C77.3317 36.4453 77.5611 36.7155 77.8483 36.9129C78.175 37.116 78.4815 37.3499 78.7636 37.6114C78.875 37.7914 78.9257 38.0025 78.9081 38.2136C78.9022 38.5342 78.7988 38.8454 78.6116 39.1057C78.4244 39.366 78.1623 39.5632 77.8603 39.6708C76.9198 40.0632 75.9034 40.2402 74.8856 40.1887C72.7952 40.2414 70.7249 39.7693 68.8639 38.8157C68.5067 38.6807 68.1949 38.4473 67.9648 38.1425C67.7346 37.8378 67.5954 37.4741 67.5632 37.0935C67.55 36.8404 67.6221 36.5902 67.768 36.383C67.9828 36.1633 68.2413 35.991 68.5267 35.8772C68.7971 35.7532 69.031 35.5619 69.2061 35.3214C69.3811 35.081 69.4914 34.7996 69.5263 34.5042C69.7351 32.6124 69.8436 30.711 69.8515 28.8077C69.8657 27.3537 69.7731 25.9005 69.5745 24.4601C69.5597 24.4155 69.536 24.3745 69.505 24.3393C69.4739 24.3041 69.4361 24.2756 69.3938 24.2553C69.3095 24.2553 69.0566 24.171 68.611 24.0747C68.2924 24.024 68.0022 23.8618 67.7921 23.617C67.5776 23.3709 67.4655 23.052 67.4789 22.7258C67.4758 22.3145 67.6311 21.9178 67.9125 21.6178C68.3249 21.2149 68.8117 20.8959 69.3456 20.6784C71.2421 19.7052 73.3058 19.1004 75.4275 18.896V18.896ZM76.9811 24.9177L76.7523 29.2413C76.7523 29.4219 76.7523 29.5905 76.7523 29.7591C76.7504 29.916 76.7893 30.0707 76.8653 30.208C76.9414 30.3453 77.0518 30.4604 77.1859 30.542C77.5215 30.7604 77.9181 30.8659 78.3179 30.843C79.7631 30.843 80.4858 29.6387 80.4858 27.23C80.6059 26.0654 80.2787 24.8986 79.5705 23.9663C79.3986 23.7809 79.1897 23.6337 78.9574 23.5341C78.725 23.4345 78.4744 23.3848 78.2216 23.3882C77.4508 23.3762 77.0775 23.8699 76.9811 24.8575V24.9177Z" fill="#08458D"></path>
  <path d="M98.1656 22.0153V27.0735C98.1296 28.3749 98.1618 29.6774 98.2619 30.9755C98.3099 31.1724 98.4068 31.354 98.5437 31.5034C98.6805 31.6529 98.8528 31.7654 99.0447 31.8306C99.3307 31.9335 99.5929 32.0933 99.8155 32.3003C99.9612 32.4752 100.034 32.6993 100.02 32.9265C100.02 33.2795 99.887 33.6194 99.6469 33.878C99.3845 34.1695 99.0403 34.3751 98.6593 34.4681C97.4076 34.7517 96.124 34.8691 94.8416 34.8173C93.4013 34.8883 91.9588 34.7339 90.5662 34.3597C90.2049 34.235 89.8844 34.0143 89.6389 33.7214C89.4141 33.4733 89.2859 33.1528 89.2775 32.8181C89.271 32.713 89.2858 32.6076 89.321 32.5082C89.3561 32.4089 89.411 32.3177 89.4823 32.2401C89.7327 32.0217 90.0231 31.854 90.3374 31.7463C90.7468 31.5656 90.9998 31.0839 91.0961 30.277C91.2868 28.3442 91.3672 26.402 91.337 24.4601C91.3867 22.811 91.3143 21.1606 91.1202 19.5223C91.0679 19.1859 90.9427 18.865 90.7534 18.5821C90.564 18.2992 90.3152 18.0611 90.0242 17.8844C89.6749 17.711 89.3668 17.4646 89.121 17.1618C88.9482 16.9199 88.8593 16.628 88.8681 16.3308C88.8782 16.0649 88.9511 15.8051 89.0809 15.5727C89.2107 15.3404 89.3936 15.1421 89.6148 14.994C90.347 14.4953 91.1628 14.1322 92.0234 13.9221C92.9337 13.6468 93.8584 13.4216 94.7934 13.2477C95.6232 13.0811 96.4648 12.9804 97.3105 12.9466C98.1415 12.9466 98.5148 13.4645 98.5148 14.4882C98.5148 14.8254 98.5148 15.5961 98.3582 16.8005C98.2619 18.7395 98.1776 20.4737 98.1656 22.0153Z" fill="#08458D"></path>
  <path d="M109.932 18.8117C111.589 18.7584 113.218 19.2398 114.58 20.1847C115.196 20.612 115.683 21.1991 115.99 21.8828C116.288 22.7245 116.423 23.6157 116.387 24.5082V26.8567C116.312 27.9201 116.426 28.9884 116.724 30.012C116.793 30.189 116.91 30.3433 117.061 30.4576C117.272 30.5485 117.495 30.6054 117.724 30.6263C117.801 30.6351 117.876 30.6594 117.944 30.6978C118.011 30.7362 118.07 30.7879 118.118 30.8498C118.165 30.9116 118.199 30.9824 118.218 31.0578C118.238 31.1332 118.241 31.2117 118.23 31.2886C118.203 31.8676 117.987 32.4218 117.615 32.8663C117.193 33.4266 116.66 33.894 116.05 34.2393C115.321 34.6764 114.49 34.9133 113.641 34.9257C113.148 34.9495 112.656 34.8598 112.203 34.6635C111.75 34.4673 111.348 34.1697 111.028 33.7937C110.962 33.6839 110.873 33.5901 110.767 33.5192C110.661 33.4484 110.54 33.4022 110.413 33.3842C110.102 33.4281 109.812 33.5669 109.582 33.7816C108.538 34.5441 107.274 34.9458 105.982 34.9257C104.806 34.983 103.641 34.6759 102.646 34.0466C102.089 33.6526 101.634 33.1311 101.32 32.5256C101.005 31.9201 100.841 31.2482 100.839 30.566C100.837 30.0275 100.948 29.4945 101.163 29.001C101.379 28.5075 101.695 28.0643 102.092 27.6997C103.81 26.2514 106.028 25.5338 108.27 25.7005C108.66 25.7417 109.055 25.6794 109.414 25.5199C109.51 25.4035 109.581 25.2686 109.622 25.1235C109.664 24.9784 109.675 24.8264 109.655 24.6768C109.7 23.8587 109.581 23.0399 109.305 22.2682C109.214 22.0444 109.056 21.8535 108.855 21.7203C108.653 21.5872 108.415 21.5179 108.173 21.5215C107.87 21.5206 107.574 21.6178 107.33 21.7985C106.98 22.1043 106.668 22.4522 106.403 22.8342C106.117 23.3834 105.701 23.854 105.191 24.2047C104.68 24.5554 104.092 24.7754 103.476 24.8454C103.032 24.8484 102.603 24.6852 102.272 24.3878C102.109 24.2337 101.98 24.0466 101.895 23.8389C101.81 23.6312 101.77 23.4078 101.778 23.1835C101.796 22.6286 102.004 22.0969 102.369 21.678C102.822 21.1333 103.379 20.6832 104.006 20.3533C105.823 19.3567 107.859 18.827 109.932 18.8117V18.8117ZM108.884 27.9165C108.653 27.9164 108.424 27.9682 108.216 28.0683C108.007 28.1684 107.824 28.3141 107.68 28.4946C107.374 28.8451 107.193 29.2866 107.165 29.7506C107.137 30.2145 107.263 30.6748 107.523 31.0598C107.636 31.2072 107.783 31.3263 107.95 31.4078C108.117 31.4892 108.301 31.5309 108.487 31.5295C109.289 31.5295 109.691 30.8189 109.691 29.3978C109.735 28.9875 109.673 28.5728 109.51 28.1935C109.435 28.1015 109.339 28.0284 109.23 27.9803C109.121 27.9322 109.003 27.9103 108.884 27.9165V27.9165Z" fill="#08458D"></path>
  <path d="M125.528 18.8238C126.388 18.8631 127.242 18.98 128.081 19.173C128.28 19.2064 128.481 19.2265 128.683 19.2332C129.041 19.1879 129.39 19.0905 129.719 18.9442C129.915 18.8683 130.123 18.8236 130.333 18.8117C130.632 18.8449 130.92 18.9457 131.174 19.1063C131.429 19.2669 131.644 19.4833 131.802 19.7391C132.2 20.2296 132.528 20.7726 132.778 21.3529C133.003 21.8326 133.13 22.3527 133.151 22.8824C133.157 23.0777 133.121 23.2721 133.047 23.4527C132.972 23.6333 132.86 23.796 132.718 23.9301C132.418 24.2105 132.02 24.3618 131.61 24.3517C131.265 24.3544 130.926 24.2582 130.634 24.0747C130.129 23.721 129.661 23.3175 129.237 22.8703C128.811 22.3591 128.218 22.0139 127.563 21.8948C127.275 21.9011 127.002 22.0189 126.799 22.2234C126.597 22.4279 126.482 22.7031 126.479 22.9908C126.479 23.4966 126.973 23.9783 127.96 24.436C129.466 25.0565 130.849 25.9416 132.043 27.0494C132.434 27.4287 132.742 27.8842 132.949 28.3876C133.156 28.891 133.258 29.4316 133.248 29.9759C133.243 30.6891 133.065 31.3904 132.729 32.0198C132.393 32.6491 131.91 33.1875 131.321 33.5889C130.162 34.4885 128.728 34.9606 127.262 34.9257C126.865 34.9257 126.058 34.8535 125.034 34.721C124.01 34.5885 123.444 34.5524 123.312 34.5524C123.156 34.5371 122.998 34.5371 122.842 34.5524C122.622 34.5837 122.401 34.6038 122.18 34.6126C121.745 34.6525 121.312 34.5182 120.975 34.2393C120.453 33.713 120.043 33.0861 119.771 32.3966C119.455 31.7402 119.271 31.0283 119.229 30.3011C119.229 29.3376 119.614 28.8559 120.433 28.8559C120.727 28.8583 121.012 28.9602 121.24 29.1449C121.784 29.6362 122.303 30.1547 122.794 30.6985C123.109 31.06 123.469 31.3797 123.866 31.6499C124.137 31.8168 124.45 31.9044 124.769 31.9028C125.075 31.9212 125.377 31.8221 125.612 31.6259C125.715 31.5363 125.796 31.425 125.85 31.3C125.904 31.1749 125.93 31.0394 125.925 30.9033C125.925 30.4215 125.516 30 124.721 29.6026C123.36 28.9919 122.133 28.1204 121.108 27.0373C120.374 26.1932 119.975 25.109 119.988 23.9904C119.978 22.8028 120.407 21.6534 121.192 20.7627C121.727 20.1403 122.394 19.6438 123.143 19.3086C123.893 18.9734 124.707 18.8078 125.528 18.8238V18.8238Z" fill="#08458D"></path>
  <path d="M144.038 22.9546V28.2658C144.015 28.8163 144.176 29.3589 144.496 29.8073C144.632 29.9986 144.813 30.1536 145.023 30.2586C145.233 30.3636 145.466 30.4154 145.7 30.4095C146.28 30.3523 146.837 30.1582 147.326 29.8434C147.466 29.7522 147.629 29.7021 147.796 29.6989C147.94 29.7111 148.078 29.7595 148.198 29.8395C148.318 29.9195 148.416 30.0286 148.482 30.1566C148.689 30.4484 148.799 30.7983 148.796 31.1562C148.768 31.5264 148.659 31.886 148.476 32.2088C148.292 32.5316 148.04 32.8097 147.736 33.0229C146.222 34.2975 144.294 34.9743 142.316 34.9257C140.834 34.9986 139.381 34.4885 138.27 33.5046C137.761 33.0243 137.361 32.4402 137.097 31.792C136.833 31.1437 136.711 30.4464 136.74 29.7471V22.5211C136.74 22.2802 136.74 22.1357 136.656 22.0755C136.571 22.0153 136.451 21.9912 136.21 21.9912H134.584C134.283 21.9912 134.091 21.9912 134.006 21.8346C133.893 21.6204 133.847 21.377 133.874 21.1361V20.4496C133.868 20.3119 133.899 20.175 133.962 20.0525C134.025 19.9301 134.119 19.8262 134.235 19.7511L141.461 15.2228C141.667 15.1205 141.894 15.0708 142.123 15.0783H143.4C143.496 15.0661 143.594 15.0761 143.686 15.1074C143.778 15.1387 143.861 15.1905 143.93 15.2589C144.037 15.4795 144.083 15.725 144.062 15.9695V18.065C144.035 18.2805 144.087 18.4985 144.207 18.6792C144.396 18.8004 144.622 18.8515 144.845 18.8238H147.76C148.03 18.7897 148.302 18.8632 148.519 19.0285C148.659 19.3075 148.718 19.6208 148.687 19.9318V20.8711C148.717 21.234 148.642 21.5978 148.47 21.9189C148.367 22.0261 148.241 22.108 148.101 22.1581C147.961 22.2082 147.811 22.2253 147.663 22.208H144.821C144.716 22.178 144.605 22.1768 144.499 22.2043C144.393 22.2318 144.296 22.2871 144.219 22.3644C144.142 22.4418 144.086 22.5384 144.059 22.6443C144.031 22.7502 144.033 22.8615 144.062 22.9667L144.038 22.9546Z" fill="#08458D"></path>
  <path d="M0.878906 49V41H5.83984V42.0391H2.08594V44.4766H5.48438V45.5117H2.08594V49H0.878906Z" fill="#EE3436"></path>
  <path d="M10.0742 49V41H15.0898V42.0391H11.2812V44.4766H14.8281V45.5117H11.2812V47.9609H15.1367V49H10.0742Z" fill="#EE3436"></path>
  <path d="M25.9092 41V49H24.7998L20.7334 43.1328H20.6592V49H19.4521V41H20.5693L24.6396 46.875H24.7139V41H25.9092Z" fill="#EE3436"></path>
  <path d="M34.7832 43.1016C34.7415 42.7318 34.5697 42.4453 34.2676 42.2422C33.9655 42.0365 33.5853 41.9336 33.127 41.9336C32.7988 41.9336 32.515 41.9857 32.2754 42.0898C32.0358 42.1914 31.8496 42.332 31.7168 42.5117C31.5866 42.6888 31.5215 42.8906 31.5215 43.1172C31.5215 43.3073 31.5658 43.4714 31.6543 43.6094C31.7454 43.7474 31.8639 43.8633 32.0098 43.957C32.1582 44.0482 32.3171 44.125 32.4863 44.1875C32.6556 44.2474 32.8184 44.2969 32.9746 44.3359L33.7559 44.5391C34.0111 44.6016 34.2728 44.6862 34.541 44.793C34.8092 44.8997 35.0579 45.0404 35.2871 45.2148C35.5163 45.3893 35.7012 45.6055 35.8418 45.8633C35.985 46.1211 36.0566 46.4297 36.0566 46.7891C36.0566 47.2422 35.9395 47.6445 35.7051 47.9961C35.4733 48.3477 35.1361 48.625 34.6934 48.8281C34.2533 49.0312 33.7207 49.1328 33.0957 49.1328C32.4967 49.1328 31.9785 49.0378 31.541 48.8477C31.1035 48.6576 30.7611 48.388 30.5137 48.0391C30.2663 47.6875 30.1296 47.2708 30.1035 46.7891H31.3145C31.3379 47.0781 31.4316 47.319 31.5957 47.5117C31.7624 47.7018 31.9746 47.8438 32.2324 47.9375C32.4928 48.0286 32.778 48.0742 33.0879 48.0742C33.429 48.0742 33.7324 48.0208 33.998 47.9141C34.2663 47.8047 34.4772 47.6536 34.6309 47.4609C34.7845 47.2656 34.8613 47.0378 34.8613 46.7773C34.8613 46.5404 34.7936 46.3464 34.6582 46.1953C34.5254 46.0443 34.3444 45.9193 34.1152 45.8203C33.8887 45.7214 33.6322 45.6341 33.3457 45.5586L32.4004 45.3008C31.7598 45.1263 31.252 44.8698 30.877 44.5313C30.5046 44.1927 30.3184 43.7448 30.3184 43.1875C30.3184 42.7266 30.4434 42.3242 30.6934 41.9805C30.9434 41.6367 31.2819 41.3698 31.709 41.1797C32.1361 40.987 32.6178 40.8906 33.1543 40.8906C33.696 40.8906 34.1738 40.9857 34.5879 41.1758C35.0046 41.3659 35.3327 41.6276 35.5723 41.9609C35.8118 42.2917 35.9368 42.6719 35.9473 43.1016H34.7832Z" fill="#EE3436"></path>
  <path d="M39.8545 42.0391V41H46.0459V42.0391H43.5498V49H42.3467V42.0391H39.8545Z" fill="#EE3436"></path>
  <path d="M50.1641 49V41H55.1797V42.0391H51.3711V44.4766H54.918V45.5117H51.3711V47.9609H55.2266V49H50.1641Z" fill="#EE3436"></path>
  <path d="M59.542 49V41H62.3936C63.0133 41 63.5277 41.1068 63.9365 41.3203C64.348 41.5339 64.6553 41.8294 64.8584 42.207C65.0615 42.582 65.1631 43.0156 65.1631 43.5078C65.1631 43.9974 65.0602 44.4284 64.8545 44.8008C64.6514 45.1706 64.3441 45.4583 63.9326 45.6641C63.5238 45.8698 63.0094 45.9727 62.3896 45.9727H60.2295V44.9336H62.2803C62.6709 44.9336 62.9886 44.8776 63.2334 44.7656C63.4808 44.6536 63.6618 44.4909 63.7764 44.2773C63.891 44.0638 63.9482 43.8073 63.9482 43.5078C63.9482 43.2057 63.8896 42.944 63.7725 42.7227C63.6579 42.5013 63.4769 42.332 63.2295 42.2148C62.9847 42.0951 62.6631 42.0352 62.2646 42.0352H60.749V49H59.542ZM63.4912 45.3906L65.4678 49H64.0928L62.1553 45.3906H63.4912Z" fill="#EE3436"></path>
  <path d="M88.2422 43.1016C88.2005 42.7318 88.0286 42.4453 87.7266 42.2422C87.4245 42.0365 87.0443 41.9336 86.5859 41.9336C86.2578 41.9336 85.974 41.9857 85.7344 42.0898C85.4948 42.1914 85.3086 42.332 85.1758 42.5117C85.0456 42.6888 84.9805 42.8906 84.9805 43.1172C84.9805 43.3073 85.0247 43.4714 85.1133 43.6094C85.2044 43.7474 85.3229 43.8633 85.4688 43.957C85.6172 44.0482 85.776 44.125 85.9453 44.1875C86.1146 44.2474 86.2773 44.2969 86.4336 44.3359L87.2148 44.5391C87.4701 44.6016 87.7318 44.6862 88 44.793C88.2682 44.8997 88.5169 45.0404 88.7461 45.2148C88.9753 45.3893 89.1602 45.6055 89.3008 45.8633C89.444 46.1211 89.5156 46.4297 89.5156 46.7891C89.5156 47.2422 89.3984 47.6445 89.1641 47.9961C88.9323 48.3477 88.5951 48.625 88.1523 48.8281C87.7122 49.0312 87.1797 49.1328 86.5547 49.1328C85.9557 49.1328 85.4375 49.0378 85 48.8477C84.5625 48.6576 84.2201 48.388 83.9727 48.0391C83.7253 47.6875 83.5885 47.2708 83.5625 46.7891H84.7734C84.7969 47.0781 84.8906 47.319 85.0547 47.5117C85.2214 47.7018 85.4336 47.8438 85.6914 47.9375C85.9518 48.0286 86.237 48.0742 86.5469 48.0742C86.888 48.0742 87.1914 48.0208 87.457 47.9141C87.7253 47.8047 87.9362 47.6536 88.0898 47.4609C88.2435 47.2656 88.3203 47.0378 88.3203 46.7773C88.3203 46.5404 88.2526 46.3464 88.1172 46.1953C87.9844 46.0443 87.8034 45.9193 87.5742 45.8203C87.3477 45.7214 87.0911 45.6341 86.8047 45.5586L85.8594 45.3008C85.2188 45.1263 84.7109 44.8698 84.3359 44.5313C83.9635 44.1927 83.7773 43.7448 83.7773 43.1875C83.7773 42.7266 83.9023 42.3242 84.1523 41.9805C84.4023 41.6367 84.7409 41.3698 85.168 41.1797C85.5951 40.987 86.0768 40.8906 86.6133 40.8906C87.1549 40.8906 87.6328 40.9857 88.0469 41.1758C88.4635 41.3659 88.7917 41.6276 89.0313 41.9609C89.2708 42.2917 89.3958 42.6719 89.4062 43.1016H88.2422Z" fill="#EE3436"></path>
  <path d="M94.6308 41H96.0019L98.0918 44.6367H98.1777L100.268 41H101.639L98.7363 45.8594V49H97.5332V45.8594L94.6308 41Z" fill="#EE3436"></path>
  <path d="M111.432 43.1016C111.39 42.7318 111.218 42.4453 110.916 42.2422C110.614 42.0365 110.234 41.9336 109.775 41.9336C109.447 41.9336 109.163 41.9857 108.924 42.0898C108.684 42.1914 108.498 42.332 108.365 42.5117C108.235 42.6888 108.17 42.8906 108.17 43.1172C108.17 43.3073 108.214 43.4714 108.303 43.6094C108.394 43.7474 108.512 43.8633 108.658 43.957C108.807 44.0482 108.965 44.125 109.135 44.1875C109.304 44.2474 109.467 44.2969 109.623 44.3359L110.404 44.5391C110.659 44.6016 110.921 44.6862 111.189 44.793C111.458 44.8997 111.706 45.0404 111.935 45.2148C112.165 45.3893 112.35 45.6055 112.49 45.8633C112.633 46.1211 112.705 46.4297 112.705 46.7891C112.705 47.2422 112.588 47.6445 112.353 47.9961C112.122 48.3477 111.784 48.625 111.342 48.8281C110.902 49.0312 110.369 49.1328 109.744 49.1328C109.145 49.1328 108.627 49.0378 108.189 48.8477C107.752 48.6576 107.409 48.388 107.162 48.0391C106.915 47.6875 106.778 47.2708 106.752 46.7891H107.963C107.986 47.0781 108.08 47.319 108.244 47.5117C108.411 47.7018 108.623 47.8438 108.881 47.9375C109.141 48.0286 109.426 48.0742 109.736 48.0742C110.077 48.0742 110.381 48.0208 110.646 47.9141C110.915 47.8047 111.126 47.6536 111.279 47.4609C111.433 47.2656 111.51 47.0378 111.51 46.7773C111.51 46.5404 111.442 46.3464 111.307 46.1953C111.174 46.0443 110.993 45.9193 110.764 45.8203C110.537 45.7214 110.281 45.6341 109.994 45.5586L109.049 45.3008C108.408 45.1263 107.9 44.8698 107.525 44.5313C107.153 44.1927 106.967 43.7448 106.967 43.1875C106.967 42.7266 107.092 42.3242 107.342 41.9805C107.592 41.6367 107.93 41.3698 108.357 41.1797C108.784 40.987 109.266 40.8906 109.803 40.8906C110.344 40.8906 110.822 40.9857 111.236 41.1758C111.653 41.3659 111.981 41.6276 112.221 41.9609C112.46 42.2917 112.585 42.6719 112.596 43.1016H111.432Z" fill="#EE3436"></path>
  <path d="M118.043 42.0391V41H124.234V42.0391H121.738V49H120.535V42.0391H118.043Z" fill="#EE3436"></path>
  <path d="M129.892 49V41H134.908V42.0391H131.099V44.4766H134.646V45.5117H131.099V47.9609H134.955V49H129.892Z" fill="#EE3436"></path>
  <path d="M140.81 41H142.275L144.822 47.2188H144.916L147.463 41H148.928V49H147.779V43.2109H147.705L145.346 48.9883H144.392L142.033 43.207H141.959V49H140.81V41Z" fill="#EE3436"></path>
</svg>
